<svg xmlns="http://www.w3.org/2000/svg" viewBox="0 0 202.82 202.82"><defs><style>.cls-1,.cls-2,.cls-3{fill:none;stroke:#e4ff40;stroke-miterlimit:10;}.cls-1{stroke-width:15.32px;}.cls-2{stroke-width:11.18px;}.cls-3{stroke-width:2.59px;}</style></defs><title>Asset 35</title><g id="Layer_2" data-name="Layer 2"><g id="Layer_1-2" data-name="Layer 1"><circle class="cls-1" cx="101.41" cy="101.41" r="93.75"/><path class="cls-2" d="M67.58,104.81A93.86,93.86,0,0,0,167.67,83.67a94.4,94.4,0,0,0,17.59-24.35,93.75,93.75,0,1,1-167.7,0A93.91,93.91,0,0,0,35.45,84a94.58,94.58,0,0,0,11,9.35L38,116.92Z"/><path class="cls-2" d="M35.3,83.35a68.42,68.42,0,0,1,132.22-.3"/><polyline class="cls-3" points="108.66 87.88 119.72 76.07 109.52 65.76"/><polyline class="cls-3" points="94.05 65.76 83.1 76.82 94.05 87.88"/><line class="cls-3" x1="105.54" y1="62.65" x2="98.46" y2="91"/></g></g></svg>